<svg width="48" height="48" viewBox="0 0 48 48" fill="none" xmlns="http://www.w3.org/2000/svg">
<path d="M39.8044 5.19944H38.3584V3.6217C38.3584 1.62384 36.782 0 34.8421 0C32.9008 0 31.3257 1.62384 31.3257 3.6217V5.19812H27.7172V3.6217C27.7172 1.62384 26.1408 0 24.2009 0C22.2609 0 20.6845 1.62384 20.6845 3.6217V5.19812H17.076V3.6217C17.076 1.62384 15.4996 0 13.5596 0C11.6197 0 10.0433 1.62384 10.0433 3.6217V5.19812H8.1969C5.11121 5.19812 2.59973 7.70961 2.59973 10.7953V42.4028C2.59973 45.4885 5.11121 48 8.1969 48H39.8044C42.8914 48 45.4016 45.4885 45.4016 42.4028V10.7953C45.4016 7.71092 42.8901 5.19944 39.8044 5.19944ZM33.3012 3.6217C33.3012 2.7143 33.9926 1.97547 34.8421 1.97547C35.6928 1.97547 36.3829 2.7143 36.3829 3.6217V10.0696C36.3829 10.977 35.6928 11.7159 34.8421 11.7159C33.9926 11.7159 33.3012 10.977 33.3012 10.0696V3.6217ZM22.66 3.6217C22.66 2.7143 23.3514 1.97547 24.2009 1.97547C25.0503 1.97547 25.7417 2.7143 25.7417 3.6217V10.0696C25.7417 10.977 25.0503 11.7159 24.2009 11.7159C23.3514 11.7159 22.66 10.977 22.66 10.0696V3.6217ZM12.0175 3.6217C12.0175 2.7143 12.7089 1.97547 13.5583 1.97547C14.4078 1.97547 15.0992 2.7143 15.0992 3.6217V10.0696C15.0992 10.977 14.4078 11.7159 13.5583 11.7159C12.7089 11.7159 12.0175 10.977 12.0175 10.0696V3.6217ZM42.1092 42.4042C42.1092 43.675 41.0753 44.7089 39.8044 44.7089H8.1969C6.92601 44.7089 5.89218 43.675 5.89218 42.4042V13.4306H42.1092V42.4042Z" fill="#219653"/>
<path d="M14.9069 19.2622H8.85541V24.6473H14.9069V19.2622Z" fill="#219653"/>
<path d="M22.9853 19.2622H16.9324V24.6473H22.9853V19.2622Z" fill="#219653"/>
<path d="M31.0676 19.2622H25.0161V24.6473H31.0676V19.2622Z" fill="#219653"/>
<path d="M39.146 19.2622H33.0931V24.6473H39.146V19.2622Z" fill="#219653"/>
<path d="M14.9069 26.4502H8.85541V31.8314H14.9069V26.4502Z" fill="#219653"/>
<path d="M22.9853 26.4502H16.9324V31.8314H22.9853V26.4502Z" fill="#219653"/>
<path d="M31.0676 26.4502H25.0161V31.8314H31.0676V26.4502Z" fill="#219653"/>
<path d="M39.146 26.4502H33.0931V31.8314H39.146V26.4502Z" fill="#219653"/>
<path d="M14.9069 33.6357H8.85541V39.0169H14.9069V33.6357Z" fill="#219653"/>
<path d="M22.9853 33.6357H16.9324V39.0169H22.9853V33.6357Z" fill="#219653"/>
<path d="M31.0676 33.6357H25.0161V39.0169H31.0676V33.6357Z" fill="#219653"/>
<path d="M39.146 33.6357H33.0931V39.0169H39.146V33.6357Z" fill="#219653"/>
</svg>
